<svg width="24" height="24" viewBox="0 0 24 24" fill="none" xmlns="http://www.w3.org/2000/svg">
<path fill-rule="evenodd" clip-rule="evenodd" d="M23.5338 15.3234L21.106 14.6251C21.3449 13.7944 21.4737 12.9144 21.4737 12C21.4737 11.0856 21.3449 10.2056 21.106 9.37493L23.5338 8.67663C23.8374 9.73198 24 10.847 24 12C24 13.153 23.8374 14.268 23.5338 15.3234ZM22.5047 6.19441L20.2947 7.41841C19.4314 5.85973 18.1403 4.5686 16.5816 3.70533L17.8056 1.49533C19.7789 2.58826 21.4117 4.22108 22.5047 6.19441ZM15.3234 0.466152L14.6251 2.89404C13.7944 2.65514 12.9144 2.52632 12 2.52632C11.0856 2.52632 10.2056 2.65514 9.37493 2.89404L8.67663 0.466153C9.73198 0.162612 10.847 0 12 0C13.153 0 14.268 0.162612 15.3234 0.466152ZM6.19441 1.49533L7.41841 3.70533C5.85973 4.5686 4.5686 5.85974 3.70533 7.41841L1.49533 6.19441C2.58826 4.22108 4.22107 2.58826 6.19441 1.49533ZM0.466152 8.67663C0.162612 9.73198 0 10.847 0 12C0 13.153 0.162612 14.268 0.466153 15.3234L2.89404 14.6251C2.65514 13.7944 2.52632 12.9144 2.52632 12C2.52632 11.0856 2.65514 10.2056 2.89404 9.37494L0.466152 8.67663ZM1.49533 17.8056L3.70533 16.5816C4.5686 18.1403 5.85974 19.4314 7.41841 20.2947L6.19441 22.5047C4.22108 21.4117 2.58826 19.7789 1.49533 17.8056ZM8.67663 23.5338C9.73198 23.8374 10.847 24 12 24C13.153 24 14.268 23.8374 15.3234 23.5338L14.6251 21.106C13.7944 21.3449 12.9144 21.4737 12 21.4737C11.0856 21.4737 10.2056 21.3449 9.37494 21.106L8.67663 23.5338ZM17.8056 22.5047L16.5816 20.2947C18.1403 19.4314 19.4314 18.1403 20.2947 16.5816L22.5047 17.8056C21.4117 19.7789 19.7789 21.4117 17.8056 22.5047Z" fill="#C8A425"/>
</svg>
