<svg width="242" height="175" viewBox="0 0 242 175" fill="none" xmlns="http://www.w3.org/2000/svg">
<path d="M52.0735 41.5767L67.2398 39.2459L66.1744 48.1911H40.4795L52.0735 41.5767ZM39.4768 48.6321C36.8446 48.6321 34.2124 48.2121 31.5803 47.3722C28.9899 46.5323 26.6084 45.2304 24.4358 43.4665C22.3051 41.6607 20.5921 39.3718 19.2969 36.6001C18.0017 33.7863 17.3541 30.4476 17.3541 26.5839C17.3541 23.8121 17.8554 20.9563 18.8582 18.0166C19.9027 15.0348 21.4486 12.305 23.4958 9.82721C25.5848 7.30742 28.1961 5.27058 31.3296 3.7167C34.5049 2.16283 38.2025 1.38589 42.4223 1.38589C45.0544 1.38589 47.6657 1.80586 50.2561 2.64579C52.8882 3.48572 55.2697 4.80862 57.4005 6.61447C59.5731 8.37833 61.307 10.6671 62.6022 13.4809C63.8973 16.2527 64.5449 19.5704 64.5449 23.4341C64.5449 26.2059 64.0227 29.0827 62.9782 32.0644C61.9754 35.0042 60.4296 37.734 58.3406 40.2538C56.2933 42.7316 53.6821 44.7474 50.5068 46.3013C47.3732 47.8552 43.6966 48.6321 39.4768 48.6321ZM39.6021 39.8128C42.4432 39.8128 44.8455 39.3298 46.8092 38.3639C48.8147 37.356 50.4232 36.0541 51.6348 34.4582C52.8465 32.8624 53.7238 31.1405 54.267 29.2927C54.8519 27.4448 55.1444 25.6599 55.1444 23.9381C55.1444 22.0902 54.8101 20.3474 54.1416 18.7095C53.5149 17.0716 52.6167 15.6227 51.4468 14.3629C50.277 13.061 48.8982 12.053 47.3106 11.3391C45.7229 10.5832 43.9681 10.2052 42.0462 10.2052C39.2052 10.2052 36.8028 10.7091 34.8391 11.7171C32.8755 12.683 31.2878 13.9639 30.0762 15.5598C28.9063 17.1556 28.0498 18.8775 27.5067 20.7253C27.0053 22.5732 26.7547 24.358 26.7547 26.0799C26.7547 27.8858 27.068 29.6286 27.6947 31.3085C28.3214 32.9464 29.1988 34.4162 30.3269 35.7181C31.4549 36.978 32.7919 37.986 34.3378 38.7419C35.9254 39.4558 37.6802 39.8128 39.6021 39.8128Z" fill="#2A7EBE"/>
<path d="M77.5373 48.1911H68.5754L95.273 0H95.7744L110.69 48.1911H100.161L91.0115 14.2999L98.1559 9.76422L77.5373 48.1911ZM84.8697 31.4345H98.7199L100.976 39.1199H81.1095L84.8697 31.4345Z" fill="#2A7EBE"/>
<path d="M116.25 1.82685H147.335L146.207 10.8351H135.177L130.602 48.1911H121.201L125.776 10.8351H115.122L116.25 1.82685Z" fill="#2A7EBE"/>
<path d="M150.428 48.1911H141.467L168.164 0H168.666L183.581 48.1911H173.052L163.903 14.2999L171.047 9.76422L150.428 48.1911ZM157.761 31.4345H171.611L173.867 39.1199H154.001L157.761 31.4345Z" fill="#2A7EBE"/>
<path d="M209.983 1.82685C212.866 1.82685 215.373 2.20482 217.504 2.96076C219.676 3.67471 221.452 4.72462 222.831 6.11051C224.21 7.4544 225.171 9.09227 225.714 11.0241C226.299 12.914 226.445 15.0558 226.152 17.4496C225.902 19.3395 225.38 21.2293 224.586 23.1191C223.792 25.009 222.664 26.7309 221.201 28.2847C219.739 29.8386 217.901 31.0985 215.686 32.0644C213.514 32.9884 210.882 33.4503 207.79 33.4503H201.272L199.455 48.1911H190.368L196.008 1.82685H209.983ZM208.793 24.631C210.631 24.631 212.114 24.2531 213.242 23.4971C214.37 22.6992 215.206 21.7753 215.749 20.7253C216.292 19.6334 216.606 18.6465 216.689 17.7646C216.773 17.2606 216.773 16.6307 216.689 15.8747C216.647 15.0768 216.439 14.2789 216.063 13.4809C215.728 12.683 215.122 12.011 214.245 11.4651C213.368 10.9191 212.135 10.6461 210.548 10.6461H204.03L202.338 24.631H208.793ZM216.627 30.3006L225.839 48.1911H215.248L205.722 30.5526L216.627 30.3006Z" fill="#2A7EBE"/>
<path d="M19.6159 64.8218C22.248 64.8218 24.5459 65.1368 26.5096 65.7667C28.5151 66.3967 30.1863 67.3206 31.5232 68.5385C32.8602 69.7564 33.8629 71.2053 34.5314 72.8852C35.2417 74.523 35.5968 76.3919 35.5968 78.4917C35.5968 80.5075 35.2626 82.5654 34.5941 84.6652C33.9674 86.765 32.9438 88.7179 31.5232 90.5237C30.1027 92.2876 28.2226 93.7365 25.8829 94.8704C23.585 95.9623 20.7648 96.5083 17.4224 96.5083H11.218L9.40057 111.186H0L5.64034 64.8218H19.6159ZM18.1118 87.626C19.6159 87.626 20.8693 87.353 21.872 86.807C22.8747 86.2611 23.6894 85.5681 24.3161 84.7282C24.9428 83.8883 25.3815 83.0273 25.6322 82.1454C25.9247 81.2635 26.0709 80.4866 26.0709 79.8146C26.0709 79.1007 25.9247 78.2607 25.6322 77.2948C25.3398 76.3289 24.7548 75.4889 23.8774 74.775C23.0001 74.0191 21.6631 73.6411 19.8665 73.6411H13.9755L12.2834 87.626H18.1118Z" fill="#2A7EBE"/>
<path d="M44.381 64.8218H53.4682L48.8932 102.367H70.5772L69.5118 111.186H38.7406L44.381 64.8218Z" fill="#2A7EBE"/>
<path d="M84.3456 64.8218H93.7462L88.1058 111.186H78.7053L84.3456 64.8218Z" fill="#2A7EBE"/>
<path d="M141.302 113.076H141.051L109.967 81.3265L112.473 82.8384L109.215 111.186H100.002L105.893 62.9949H106.269L136.602 94.6184L134.721 93.7365L138.043 64.8218H147.193L141.302 113.076Z" fill="#2A7EBE"/>
<path d="M166.341 81.3265L165.777 83.6573L167.406 81.8934L184.516 64.8218H196.298L174.739 85.6101L190.72 111.186H179.189L167.344 91.4057L164.837 93.6735L162.706 111.186H153.494L159.134 64.8218H168.347L166.341 81.3265Z" fill="#2A7EBE"/>
<path d="M216.932 111.627C214.3 111.627 211.667 111.207 209.035 110.367C206.445 109.527 204.063 108.225 201.891 106.461C199.76 104.656 198.047 102.367 196.752 99.595C195.457 96.7812 194.809 93.4425 194.809 89.5788C194.809 86.807 195.311 83.9513 196.313 81.0115C197.358 78.0297 198.904 75.3 200.951 72.8222C203.04 70.3024 205.651 68.2655 208.785 66.7117C211.96 65.1578 215.658 64.3808 219.877 64.3808C222.509 64.3808 225.121 64.8008 227.711 65.6407C230.343 66.4807 232.725 67.8036 234.856 69.6094C237.028 71.3733 238.762 73.6621 240.057 76.4759C241.352 79.2477 242 82.5654 242 86.4291C242 89.2008 241.478 92.0776 240.433 95.0594C239.431 97.9991 237.885 100.729 235.796 103.249C233.748 105.727 231.137 107.742 227.962 109.296C224.828 110.85 221.152 111.627 216.932 111.627ZM217.057 102.808C219.898 102.808 222.301 102.325 224.264 101.359C226.27 100.351 227.878 99.0491 229.09 97.4532C230.302 95.8573 231.179 94.1355 231.722 92.2876C232.307 90.4398 232.599 88.6549 232.599 86.933C232.599 85.0852 232.265 83.3423 231.597 81.7044C230.97 80.0666 230.072 78.6177 228.902 77.3578C227.732 76.0559 226.353 75.048 224.766 74.334C223.178 73.5781 221.423 73.2001 219.501 73.2001C216.66 73.2001 214.258 73.7041 212.294 74.712C210.331 75.6779 208.743 76.9588 207.531 78.5547C206.361 80.1506 205.505 81.8724 204.962 83.7203C204.46 85.5681 204.21 87.353 204.21 89.0749C204.21 90.8807 204.523 92.6236 205.15 94.3034C205.776 95.9413 206.654 97.4112 207.782 98.7131C208.91 99.973 210.247 100.981 211.793 101.737C213.38 102.451 215.135 102.808 217.057 102.808Z" fill="#2A7EBE"/>
<path d="M93.3026 171.472C92.8012 171.808 91.903 172.27 90.6078 172.858C89.3544 173.404 87.8294 173.887 86.0328 174.307C84.278 174.769 82.3562 175 80.2671 175C77.8857 175 75.3997 174.643 72.8094 173.929C70.2608 173.215 67.8793 172.039 65.6649 170.401C63.4506 168.763 61.654 166.559 60.2753 163.787C58.8965 161.015 58.2071 157.571 58.2071 153.456C58.2071 150.81 58.4996 148.227 59.0845 145.707C59.6695 143.188 60.5677 140.836 61.7794 138.652C63.0328 136.426 64.5995 134.494 66.4796 132.856C68.3598 131.176 70.595 129.875 73.1854 128.951C75.7758 127.985 78.7213 127.502 82.0219 127.502C85.4897 127.502 88.4979 128.048 91.0465 129.14C93.5951 130.19 95.6214 131.281 97.1255 132.415L92.4879 140.794C91.5687 139.954 90.2944 139.051 88.665 138.085C87.0356 137.119 85.1137 136.552 82.8993 136.384C80.6432 136.258 78.575 136.573 76.6949 137.329C74.8566 138.043 73.2689 139.135 71.932 140.605C70.595 142.075 69.5505 143.838 68.7984 145.896C68.0882 147.954 67.7331 150.243 67.7331 152.763C67.7331 154.737 68.0255 156.542 68.6104 158.18C69.1954 159.818 70.031 161.225 71.1173 162.401C72.2453 163.577 73.6032 164.501 75.1908 165.173C76.8203 165.803 78.6377 166.118 80.6432 166.118C82.4397 166.118 83.9856 165.929 85.2808 165.551C86.576 165.131 87.6623 164.69 88.5396 164.228C89.417 163.724 90.0855 163.325 90.5451 163.031L93.3026 171.472Z" fill="#2A7EBE"/>
<path d="M113.369 157.046C113.202 158.516 113.432 159.923 114.059 161.267C114.727 162.611 115.709 163.703 117.004 164.543C118.299 165.383 119.804 165.803 121.517 165.803C123.23 165.803 124.838 165.383 126.342 164.543C127.846 163.703 129.1 162.611 130.102 161.267C131.147 159.923 131.753 158.516 131.92 157.046L135.492 127.817H144.893L141.32 157.235C140.903 160.637 139.691 163.661 137.686 166.307C135.68 168.91 133.173 170.968 130.165 172.48C127.157 173.95 123.919 174.685 120.451 174.685C117.025 174.685 113.975 173.95 111.301 172.48C108.669 170.968 106.685 168.91 105.348 166.307C104.011 163.661 103.551 160.637 103.969 157.235L107.541 127.817H116.942L113.369 157.046Z" fill="#2A7EBE"/>
<path d="M170.845 127.817C173.477 127.817 175.775 128.132 177.739 128.762C179.744 129.392 181.415 130.316 182.752 131.533C184.089 132.751 185.092 134.2 185.761 135.88C186.471 137.518 186.826 139.387 186.826 141.487C186.826 143.502 186.492 145.56 185.823 147.66C185.197 149.76 184.173 151.713 182.752 153.519C181.332 155.283 179.452 156.731 177.112 157.865C174.814 158.957 171.994 159.503 168.652 159.503H162.447L160.63 174.181H151.229L156.87 127.817H170.845ZM169.341 150.621C170.845 150.621 172.098 150.348 173.101 149.802C174.104 149.256 174.919 148.563 175.545 147.723C176.172 146.883 176.611 146.022 176.861 145.14C177.154 144.258 177.3 143.481 177.3 142.81C177.3 142.096 177.154 141.256 176.861 140.29C176.569 139.324 175.984 138.484 175.107 137.77C174.229 137.014 172.892 136.636 171.096 136.636H165.205L163.513 150.621H169.341Z" fill="#2A7EBE"/>
</svg>
