<svg width="360" height="640" viewBox="0 0 360 640" fill="none" xmlns="http://www.w3.org/2000/svg">
<g clip-path="url(#clip0_3_15)">
<rect width="360" height="640" fill="#F4F4F4"/>
<g opacity="0.16" clip-path="url(#clip1_3_15)">
<g clip-path="url(#clip2_3_15)">
<path d="M212.89 583.4C212.014 583.419 190.899 583.739 150.763 566.694C109.281 549.084 93.8809 503.428 93.2495 501.494C92.9901 500.715 92.8878 499.891 92.9486 499.072C93.0094 498.253 93.2321 497.453 93.6038 496.72C93.9755 495.986 94.4889 495.333 95.1144 494.798C95.7399 494.264 96.4651 493.858 97.2482 493.604L153.298 475.382L157.15 487.226L107.43 503.389C112.76 515.507 127.616 543.305 155.653 555.21C192.91 571.028 212.436 570.928 212.629 570.923L212.89 583.4Z" fill="#FCAB28"/>
<path d="M408.291 403.174C408.867 405.125 422.171 451.424 398.082 489.514C374.765 526.366 357.232 538.111 356.486 538.598L349.643 528.192C349.776 528.101 365.891 517.076 387.533 482.872C403.819 457.131 400.23 425.821 397.713 412.819L347.628 427.812L344.058 415.88L400.52 398.98" fill="#FCAB28"/>
<path d="M150.934 476.89C150.934 476.89 142.821 476.522 140.556 469.264C138.29 462.006 135.93 459.084 140.492 450.437C145.053 441.79 192.312 417.103 232.683 404.5C273.054 391.898 331.64 385.693 340.122 389.571C348.604 393.45 350.898 410.125 350.398 413.181C349.899 416.237 344.396 417.23 344.396 417.23L150.934 476.89Z" fill="#FFCF3F"/>
<path d="M239.184 426.853C214.262 434.633 162.778 454.329 147.912 474.191C147.912 474.191 170.179 545.523 201.376 575.653C232.573 605.784 276.932 624.577 276.932 624.577L324.586 609.701C324.586 609.701 350.388 569.029 358.894 526.483C367.399 483.937 345.144 412.624 345.144 412.624C319.643 405.38 264.105 419.074 239.184 426.853Z" fill="#FFD733"/>
<path d="M239.184 426.853C214.262 434.633 162.778 454.329 147.912 474.191C147.912 474.191 170.179 545.523 201.376 575.653C216.153 589.926 233.893 601.641 248.453 610.031C257.929 610.914 267.488 609.973 276.612 607.258C337.915 589.572 337.718 533.093 338.56 512.533C339.896 480.14 331.548 432.538 327.255 410.575C299.147 410.51 259.248 420.59 239.184 426.853Z" fill="#FFE266"/>
<path d="M396.762 685.02C385.236 669.046 373.487 675.614 373.487 675.614C373.487 675.614 371.697 669.879 362.616 671.811C356.64 671.839 340.909 670.839 332.362 660.178C321.661 646.864 318.326 626.871 318.326 626.871L304.551 629.278L291.848 635.136C291.848 635.136 300.479 653.475 299.263 670.51C298.293 684.141 285.92 693.915 280.999 697.289C272.452 700.859 274.222 706.6 274.222 706.6C274.222 706.6 260.822 707.882 260.431 727.576L396.762 685.02Z" fill="#FFCE45"/>
<path d="M327.471 618.941L280.468 633.613C279.061 634.052 277.537 633.916 276.232 633.233C274.927 632.551 273.947 631.378 273.509 629.974C273.07 628.569 273.209 627.048 273.894 625.744C274.579 624.44 275.755 623.461 277.162 623.022L324.164 608.35C325.572 607.91 327.096 608.047 328.401 608.729C329.706 609.412 330.686 610.584 331.124 611.989C331.563 613.393 331.424 614.915 330.739 616.219C330.054 617.523 328.878 618.502 327.471 618.941Z" fill="#FCAB28"/>
<path d="M326.905 626.44L285.2 639.459C283.953 639.848 282.603 639.727 281.447 639.123C280.291 638.518 279.424 637.48 279.035 636.236C278.647 634.992 278.77 633.644 279.377 632.489C279.984 631.334 281.025 630.467 282.271 630.078L323.967 617.062C325.213 616.673 326.563 616.794 327.719 617.399C328.875 618.003 329.743 619.042 330.131 620.286C330.519 621.53 330.397 622.877 329.79 624.032C329.183 625.187 328.142 626.054 326.895 626.444L326.905 626.44Z" fill="#FCAB28"/>
<path d="M276.931 624.572C280.813 623.044 284.745 621.673 288.686 620.349C292.626 619.025 296.585 617.723 300.552 616.468C304.52 615.212 308.503 614.024 312.515 612.91L318.529 611.244C320.549 610.735 322.558 610.185 324.593 609.722C322.655 610.498 320.69 611.183 318.739 611.919L312.846 613.97C308.913 615.336 304.945 616.591 300.982 617.844C297.02 619.098 293.026 620.289 289.015 621.403C285.003 622.517 280.991 623.614 276.931 624.572Z" fill="#FFE266"/>
<path d="M279.626 632.426C283.581 630.881 287.582 629.483 291.591 628.11C295.599 626.737 299.633 625.444 303.671 624.167C307.71 622.89 311.767 621.673 315.85 620.537L321.974 618.836C324.032 618.321 326.074 617.755 328.145 617.281C326.172 618.068 324.171 618.765 322.185 619.512L316.181 621.596C312.177 622.985 308.14 624.267 304.101 625.544C300.063 626.821 296.004 628.033 291.921 629.169C287.839 630.305 283.759 631.451 279.626 632.426Z" fill="#FFE266"/>
<path d="M293.206 637.851C297.295 636.04 301.49 634.479 305.768 633.177C310.025 631.809 314.361 630.707 318.754 629.876C310.551 633.448 301.985 636.122 293.206 637.851Z" fill="#FFE266"/>
<g opacity="0.48">
<path d="M199.351 416.837C188.569 421.387 178.256 426.251 169.352 430.901C178.437 463.86 195.101 518.47 212.522 546.098C238.414 587.305 266.614 603.161 266.614 603.161C266.614 603.161 232.753 541.222 215.941 482.706C207.885 454.662 202.635 432.423 199.351 416.837Z" fill="#FFFFFD"/>
</g>
<path d="M345.149 412.639C336.514 410.741 327.634 410.883 318.891 411.57C310.127 412.299 301.406 413.481 292.763 415.11C284.12 416.74 275.509 418.58 266.971 420.703C258.432 422.826 249.922 425.079 241.522 427.662C233.121 430.246 224.795 433.105 216.557 436.191C208.319 439.278 200.17 442.596 192.131 446.163C184.086 449.711 176.237 453.688 168.617 458.075C161.059 462.504 153.684 467.485 147.914 474.196C150.577 470.647 153.678 467.447 157.143 464.673C158.001 463.974 158.837 463.242 159.715 462.57L162.432 460.614C164.205 459.275 166.072 458.061 167.917 456.865C175.418 452.142 183.203 447.884 191.226 444.115C207.247 436.544 223.787 430.122 240.719 424.896C257.678 419.768 274.954 415.759 292.437 412.892C301.182 411.453 310.004 410.537 318.857 410.147C321.066 410.011 323.27 410.07 325.493 410.085C327.716 410.099 329.928 410.217 332.136 410.363C334.343 410.51 336.542 410.768 338.723 411.136C339.819 411.282 340.902 411.51 341.964 411.818L345.149 412.639Z" fill="#FCAB28"/>
<path d="M207.861 471.341L210.669 458.603L219.892 467.824L232.653 470.61L223.408 479.833L220.601 492.571L211.372 483.352L198.616 480.565L207.861 471.341Z" fill="white"/>
</g>
</g>
<g opacity="0.3" clip-path="url(#clip3_3_15)">
<g clip-path="url(#clip4_3_15)">
<path d="M28.4891 380.989C-16.9038 380.989 -61.2775 367.53 -99.0204 342.315C-136.763 317.1 -166.18 281.26 -183.551 239.328C-200.923 197.397 -205.468 151.256 -196.612 106.742C-187.756 62.2276 -165.897 21.3385 -133.8 -10.7546C-101.702 -42.8477 -60.807 -64.7034 -16.2863 -73.5578C28.2345 -82.4123 74.3815 -77.8679 116.319 -60.4992C158.257 -43.1306 194.101 -13.7177 219.32 24.0197C244.539 61.7572 258 106.124 258 151.511C257.978 277.713 155.835 380.989 28.4891 380.989Z" fill="url(#paint0_radial_3_15)"/>
<path opacity="0.13" d="M141.834 260.804C214.818 187.83 214.818 69.5161 141.834 -3.45755C68.8503 -76.4312 -49.4803 -76.4312 -122.464 -3.45755C-195.449 69.5161 -195.449 187.83 -122.464 260.804C-49.4803 333.777 68.8503 333.777 141.834 260.804Z" fill="white"/>
<path d="M64.107 61.8833C63.8933 61.8848 63.6803 61.8591 63.4731 61.8068C63.1334 61.7248 62.8131 61.5766 62.5308 61.3706C62.2485 61.1646 62.0096 60.905 61.8279 60.6065C61.6461 60.308 61.5252 59.9766 61.4718 59.6313C61.4184 59.2859 61.4337 58.9335 61.5168 58.5941L80.2055 -17.8986C80.4084 -18.5454 80.8501 -19.0906 81.4408 -19.4234C82.0314 -19.7562 82.7266 -19.8515 83.3851 -19.69C84.0435 -19.5286 84.6157 -19.1224 84.9854 -18.5542C85.355 -17.9859 85.4943 -17.2983 85.3749 -16.631L66.6862 59.8617C66.5462 60.4395 66.2155 60.9533 65.7475 61.3201C65.2796 61.6869 64.7016 61.8853 64.107 61.8833Z" fill="#999999"/>
<path d="M226.218 70.538C225.7 70.5398 225.193 70.3896 224.76 70.106C224.327 69.8224 223.986 69.4178 223.781 68.9425C223.53 68.3743 198.644 11.9773 162.207 -12.402C161.715 -12.8267 161.395 -13.4171 161.309 -14.0614C161.224 -14.7056 161.377 -15.359 161.741 -15.8977C162.104 -16.4363 162.653 -16.823 163.283 -16.9843C163.912 -17.1457 164.579 -17.0705 165.157 -16.773C202.961 8.49141 227.628 64.5059 228.655 66.8772C228.796 67.197 228.873 67.5415 228.88 67.8909C228.887 68.2403 228.824 68.5876 228.696 68.9128C228.568 69.2379 228.377 69.5345 228.134 69.7853C227.89 70.0361 227.6 70.2362 227.278 70.374C226.941 70.503 226.579 70.5589 226.218 70.538Z" fill="#999999"/>
<path d="M208.524 148.265L126.752 146.943C126.048 146.943 125.373 146.663 124.875 146.165C124.377 145.667 124.097 144.992 124.097 144.288C124.097 143.584 124.377 142.908 124.875 142.41C125.373 141.912 126.048 141.632 126.752 141.632L208.524 142.944C209.2 142.987 209.835 143.286 210.298 143.781C210.762 144.275 211.02 144.927 211.02 145.605C211.02 146.282 210.762 146.934 210.298 147.429C209.835 147.923 209.2 148.222 208.524 148.265Z" fill="#999999"/>
<path d="M97.7359 315.085C97.1913 315.084 96.6603 314.916 96.2146 314.603C95.7689 314.291 95.43 313.849 95.244 313.337L65.5606 232.899C65.44 232.571 65.3853 232.223 65.3994 231.874C65.4135 231.525 65.4962 231.182 65.6429 230.865C65.7895 230.548 65.9972 230.263 66.254 230.026C66.5109 229.789 66.8119 229.605 67.1399 229.484C67.4678 229.364 67.8163 229.309 68.1654 229.323C68.5145 229.337 68.8574 229.42 69.1745 229.567C69.4917 229.713 69.777 229.921 70.0138 230.178C70.2507 230.435 70.4347 230.736 70.5552 231.063L100.239 311.501C100.479 312.163 100.449 312.894 100.155 313.535C99.86 314.175 99.3246 314.673 98.6648 314.921C98.3668 315.029 98.0526 315.084 97.7359 315.085Z" fill="#999999"/>
<path d="M13.4179 362.139C-16.2437 362.139 -38.3424 354.49 -52.2223 347.671C-69.3701 339.191 -77.9166 330.187 -78.2663 329.805C-78.5053 329.55 -78.6917 329.251 -78.815 328.924C-78.9383 328.597 -78.996 328.249 -78.9848 327.9C-78.9623 327.195 -78.6606 326.528 -78.1461 326.045C-77.6316 325.563 -76.9464 325.305 -76.2414 325.327C-75.5363 325.35 -74.869 325.651 -74.3864 326.166C-74.2553 326.308 -65.9383 335.006 -49.6212 343.016C-34.5172 350.436 -9.26002 358.784 25.2759 356.413C25.624 356.389 25.9734 356.433 26.3043 356.544C26.6351 356.654 26.941 356.829 27.2044 357.058C27.4677 357.287 27.6834 357.565 27.8392 357.877C27.9949 358.189 28.0876 358.529 28.112 358.877C28.1364 359.225 28.092 359.575 27.9814 359.905C27.8707 360.236 27.6961 360.542 27.4672 360.805C27.2384 361.069 26.9599 361.284 26.6477 361.44C26.3354 361.596 25.9955 361.689 25.6475 361.713C21.4398 362.03 17.3633 362.139 13.4179 362.139Z" fill="#999999"/>
<path d="M179.059 309.96C178.507 309.958 177.968 309.785 177.519 309.464C177.069 309.143 176.73 308.69 176.549 308.168C176.368 307.646 176.353 307.081 176.507 306.551C176.661 306.02 176.976 305.55 177.409 305.207C177.759 304.934 212.764 276.883 230.852 222.026C231.072 221.357 231.55 220.802 232.179 220.485C232.808 220.167 233.538 220.112 234.207 220.333C234.877 220.553 235.432 221.03 235.749 221.659C236.067 222.288 236.122 223.018 235.901 223.687C217.322 280.161 182.185 308.223 180.699 309.392C180.231 309.759 179.654 309.959 179.059 309.96Z" fill="#999999"/>
<path d="M53.9211 379.623L25.5055 359.101L97.7794 312.441L179.103 307.316L171.136 331.356C137.404 358.186 96.7661 374.92 53.9211 379.623Z" fill="#362A2D"/>
<path d="M233.377 222.857L208.524 145.61L226.218 67.8826L247.814 83.8259C260.473 125.059 261.325 169.013 250.273 210.705L233.377 222.857Z" fill="#362A2D"/>
<path d="M68.0633 231.97L-31.2822 202.958L-34.1456 96.1411L64.107 59.217L126.753 144.277L68.0633 231.97Z" fill="#362A2D"/>
<path opacity="0.13" d="M257.617 138.759C259.783 177.495 252.091 216.148 235.26 251.104C218.429 286.061 193.008 316.181 161.374 338.648C129.741 361.115 92.9263 375.197 54.3721 379.576C15.8178 383.956 -23.2175 378.49 -59.0857 363.691C98.1293 397.184 249.311 289.329 257.617 138.759Z" fill="white"/>
<path opacity="0.13" d="M-15.0415 225.545C55.4224 225.545 112.545 168.431 112.545 97.977C112.545 27.5231 55.4224 -29.591 -15.0415 -29.591C-85.5055 -29.591 -142.628 27.5231 -142.628 97.977C-142.628 168.431 -85.5055 225.545 -15.0415 225.545Z" fill="white"/>
</g>
</g>
</g>
<defs>
<radialGradient id="paint0_radial_3_15" cx="0" cy="0" r="1" gradientUnits="userSpaceOnUse" gradientTransform="translate(28.4891 151.5) rotate(90) scale(229.478 229.511)">
<stop stop-color="#DBDBDB"/>
<stop offset="0.28" stop-color="#CBCBCB"/>
<stop offset="0.62" stop-color="#C1C1C1"/>
<stop offset="1" stop-color="#BDBDBD"/>
</radialGradient>
<clipPath id="clip0_3_15">
<rect width="360" height="640" fill="white"/>
</clipPath>
<clipPath id="clip1_3_15">
<rect width="419.179" height="419.179" fill="white" transform="translate(33 454.905) rotate(-17.3361)"/>
</clipPath>
<clipPath id="clip2_3_15">
<rect width="330.033" height="398.315" fill="white" transform="translate(78.0344 452.77) rotate(-17.3361)"/>
</clipPath>
<clipPath id="clip3_3_15">
<rect width="459" height="459" fill="white" transform="translate(-201 -78)"/>
</clipPath>
<clipPath id="clip4_3_15">
<rect width="459" height="459" fill="white" transform="translate(-201 -78)"/>
</clipPath>
</defs>
</svg>
